<mxfile host="Electron" agent="Mozilla/5.0 (Windows NT 10.0; Win64; x64) AppleWebKit/537.36 (KHTML, like Gecko) draw.io/24.7.8 Chrome/128.0.6613.36 Electron/32.0.1 Safari/537.36" version="24.7.8">
  <diagram name="Page-1" id="eG60a22RxPKMrk4xuBZd">
    <mxGraphModel dx="1036" dy="654" grid="1" gridSize="10" guides="1" tooltips="1" connect="1" arrows="1" fold="1" page="1" pageScale="1" pageWidth="850" pageHeight="1100" math="0" shadow="0">
      <root>
        <mxCell id="0" />
        <mxCell id="1" parent="0" />
        <mxCell id="0jzHvx6XjIuhRZvmY7He-7" value="" style="rounded=0;whiteSpace=wrap;html=1;" parent="1" vertex="1">
          <mxGeometry x="120" y="160" width="620" height="370" as="geometry" />
        </mxCell>
        <mxCell id="0jzHvx6XjIuhRZvmY7He-1" value="&lt;b&gt;&lt;font style=&quot;font-size: 19px;&quot;&gt;User Management Sub System&lt;/font&gt;&lt;/b&gt;" style="html=1;dropTarget=0;whiteSpace=wrap;" parent="1" vertex="1">
          <mxGeometry x="190" y="250" width="230" height="120" as="geometry" />
        </mxCell>
        <mxCell id="0jzHvx6XjIuhRZvmY7He-2" value="" style="shape=module;jettyWidth=8;jettyHeight=4;" parent="0jzHvx6XjIuhRZvmY7He-1" vertex="1">
          <mxGeometry x="1" width="20" height="20" relative="1" as="geometry">
            <mxPoint x="-27" y="7" as="offset" />
          </mxGeometry>
        </mxCell>
        <mxCell id="0jzHvx6XjIuhRZvmY7He-3" value="&lt;b&gt;&lt;font style=&quot;font-size: 19px;&quot;&gt;Resource Management Sub System&lt;/font&gt;&lt;/b&gt;" style="html=1;dropTarget=0;whiteSpace=wrap;" parent="1" vertex="1">
          <mxGeometry x="450" y="250" width="205" height="120" as="geometry" />
        </mxCell>
        <mxCell id="0jzHvx6XjIuhRZvmY7He-4" value="" style="shape=module;jettyWidth=8;jettyHeight=4;" parent="0jzHvx6XjIuhRZvmY7He-3" vertex="1">
          <mxGeometry x="1" width="20" height="20" relative="1" as="geometry">
            <mxPoint x="-27" y="7" as="offset" />
          </mxGeometry>
        </mxCell>
        <mxCell id="0jzHvx6XjIuhRZvmY7He-5" value="&lt;b&gt;&lt;font style=&quot;font-size: 20px;&quot;&gt;Booking Management Sub System&lt;/font&gt;&lt;/b&gt;" style="html=1;dropTarget=0;whiteSpace=wrap;" parent="1" vertex="1">
          <mxGeometry x="340" y="380" width="210" height="120" as="geometry" />
        </mxCell>
        <mxCell id="0jzHvx6XjIuhRZvmY7He-6" value="" style="shape=module;jettyWidth=8;jettyHeight=4;" parent="0jzHvx6XjIuhRZvmY7He-5" vertex="1">
          <mxGeometry x="1" width="20" height="20" relative="1" as="geometry">
            <mxPoint x="-27" y="7" as="offset" />
          </mxGeometry>
        </mxCell>
        <mxCell id="0jzHvx6XjIuhRZvmY7He-8" value="&lt;b&gt;&lt;font style=&quot;font-size: 16px;&quot;&gt;UNIVERSITY RESOURCE MANAGEMENT SYSTEM&lt;/font&gt;&lt;/b&gt;" style="text;html=1;align=center;verticalAlign=middle;resizable=0;points=[];autosize=1;strokeColor=none;fillColor=none;" parent="1" vertex="1">
          <mxGeometry x="240" y="170" width="410" height="30" as="geometry" />
        </mxCell>
      </root>
    </mxGraphModel>
  </diagram>
</mxfile>
